<svg width="414" height="102" viewBox="0 0 414 102" fill="none" xmlns="http://www.w3.org/2000/svg">
<path fill-rule="evenodd" clip-rule="evenodd" d="M59.6215 100.366H59.6204H59.62H59.6196H59.6192C56.2826 100.383 52.9785 100.401 49.6766 100.322C37.9459 100.042 27.3809 96.4716 18.3347 88.8442C12.5911 84.0015 7.92933 78.2703 4.67264 71.4802C2.36132 66.6612 0.992763 61.5497 0.382624 56.2299C-0.508957 48.4561 0.122542 40.8305 2.64695 33.4146C4.81908 27.0336 8.28735 21.4157 12.8972 16.4803C16.3409 12.7933 20.145 9.56045 24.4528 6.94556C29.9751 3.59345 35.9562 1.4264 42.3656 0.648884C45.8339 0.228141 49.3503 0.0666567 52.8469 0.042235C60.5762 -0.0117497 68.306 -0.00213842 76.0358 0.00747287C79.0408 0.0112093 82.0458 0.0149457 85.0507 0.0149457L86.2479 0.0149465C86.5361 6.01653 86.7884 11.8717 82.7129 16.828C79.0922 21.2311 74.6235 23.9385 68.7604 23.9316C63.6773 23.9256 58.5942 23.9217 53.5112 23.9406C50.1049 23.9532 46.696 24.0327 43.3757 24.9052C39.501 25.9233 36.0842 27.7908 33.0452 30.425C30.1456 32.9385 27.794 35.8322 26.2026 39.3293C24.9157 42.1574 24.2251 45.1288 24.0914 48.2312C23.9229 52.1403 24.3074 55.9699 25.7957 59.6281C27.2909 63.3035 29.509 66.4589 32.4348 69.1657C34.5428 71.1159 36.8201 72.755 39.4045 73.9942C42.0893 75.2816 44.9405 76.0961 47.8759 76.2036C51.2699 76.3278 54.6694 76.3009 58.0589 76.274C59.4855 76.2627 60.9103 76.2514 62.3322 76.2514C61.786 76.011 61.2313 75.7709 60.672 75.5288L60.6714 75.5285C59.4101 74.9826 58.1248 74.4262 56.8573 73.8318C56.0292 73.4434 55.1822 73.0906 54.335 72.7378C52.1589 71.8314 49.9819 70.9247 48.1225 69.4135C44.7484 66.6711 42.614 63.1861 42.5653 58.7599C42.5178 54.4402 42.5207 50.1199 42.5236 45.7996C42.5265 41.4251 42.5295 37.0506 42.4801 32.6767C42.4473 29.7736 44.8611 27.1678 47.7113 27.0098C48.7215 26.9538 49.8413 27.2878 50.7768 27.7287C54.9684 29.7044 59.1396 31.723 63.3109 33.7417L63.3122 33.7423L63.3126 33.7425L63.3128 33.7426C64.9471 34.5335 66.5813 35.3244 68.2168 36.1127C69.8152 36.8831 71.4194 37.642 73.0237 38.4009L73.0238 38.401L73.0239 38.401L73.0239 38.4011C76.4959 40.0436 79.9679 41.686 83.3798 43.4449C88.8953 46.2883 92.1376 50.8365 92.7366 57.1084C92.857 58.3688 92.91 59.6403 92.9113 60.9067C92.9151 64.5201 92.9113 68.1334 92.9075 71.7468C92.9015 77.4636 92.8955 83.1804 92.9195 88.8971C92.9353 92.6859 91.2243 95.5255 88.4219 97.8678C86.2902 99.6495 83.7837 100.327 81.0779 100.342C77.127 100.362 73.176 100.358 69.1895 100.354H69.186H69.1825H69.1789C67.5338 100.352 65.8828 100.351 64.2231 100.351C62.6813 100.35 61.1491 100.358 59.6237 100.366H59.6226H59.6215ZM75.3233 45.8063L48.199 32.7168C48.1911 32.8554 48.1829 32.9737 48.1756 33.0787C48.1624 33.2706 48.1522 33.4185 48.1522 33.5663C48.1522 35.5591 48.1517 37.5519 48.1513 39.5447V39.5495C48.1498 45.7445 48.1483 51.9395 48.1616 58.1345C48.1692 61.6855 49.8109 64.3349 52.9888 65.8162C59.1924 68.7076 65.4413 71.5058 71.7207 74.229C75.7988 75.9974 79.6291 78.1294 82.9391 81.1069C85.0886 83.0406 86.6851 85.3554 87.2401 88.2869C87.3003 87.8968 87.3005 87.5305 87.3003 87.1643C87.2991 85.1092 87.2982 83.0541 87.2973 80.9991C87.2946 74.497 87.2918 67.995 87.2781 61.493C87.2756 60.2938 87.2029 59.0933 87.1233 57.8961C86.8296 53.4824 84.4221 50.4693 80.6841 48.4143C79.5478 47.7896 78.3702 47.2399 77.1517 46.6711C76.5521 46.3912 75.9427 46.1067 75.3233 45.8063ZM109.451 0.0543534H243.986C243.304 1.431 242.633 2.79801 241.968 4.15531L241.967 4.15718L241.967 4.15782L241.966 4.15873C239.906 8.36044 237.892 12.4691 235.704 16.4827C235.289 17.243 233.405 17.457 232.191 17.4822C228.461 17.5597 224.729 17.548 220.894 17.536H220.894L220.892 17.536C219.47 17.5316 218.035 17.5271 216.58 17.5271V99.3845H198.881V17.7826C186.717 17.7826 170.249 17.7554 153.824 17.7283H153.823H153.823H153.823L153.819 17.7283C137.478 17.7013 121.179 17.6744 109.202 17.6744L109.451 0.0543534ZM314.664 58.3083V46.9188V40.5782H276.766V17.5309C279.458 17.5309 282.135 17.5326 284.803 17.5342C293.584 17.5396 302.253 17.5449 310.923 17.4914C312.283 17.483 314.42 17.3699 314.871 16.5635C317.094 12.5905 319.111 8.50221 321.178 4.31209C321.861 2.92914 322.548 1.53511 323.251 0.130475H259.166V99.7153H319.929H323.505C322.751 98.2242 322 96.7862 321.265 95.3788C319.588 92.1691 317.995 89.119 316.647 85.964C315.349 82.924 313.575 82.0289 310.32 82.0949C302.257 82.2585 294.19 82.2307 286.111 82.2029H286.11H286.11H286.11H286.109H286.107H286.106H286.104H286.103C283.021 82.1922 279.937 82.1816 276.851 82.1816V58.3083H314.664ZM109.644 58.3041H131.822C133.405 58.2661 134.937 58.2833 136.564 58.3017H136.564H136.564C138.217 58.3202 139.968 58.3399 141.972 58.3041C143.504 58.3041 145.004 58.296 146.474 58.2882H146.475C149.332 58.2729 152.081 58.2582 154.752 58.3041C155.711 58.3205 156.669 58.316 157.822 58.3105H157.822H157.822H157.823C158.478 58.3075 159.196 58.3041 160.013 58.3041C160.013 56.3626 160.013 54.4074 160.014 51.5819C160.015 47.3865 160.015 44.0616 160.015 40.6501H109.644V58.3041ZM141.161 98.9538H109.644V81.2998H181.224C181.224 84.7113 181.224 88.0362 181.222 92.2316C181.22 95.0572 181.22 97.0123 181.22 98.9538C180.06 98.9538 179.039 98.9572 178.108 98.9603H178.106C176.469 98.9657 175.107 98.9702 173.745 98.9538C169.949 98.9079 166.043 98.9226 161.982 98.9379L161.977 98.9379C159.889 98.9458 157.759 98.9538 155.583 98.9538C152.736 98.9897 150.247 98.97 147.899 98.9514C145.587 98.9331 143.41 98.9158 141.161 98.9538ZM384.025 101.916C380.64 101.934 377.288 101.952 373.938 101.872C362.039 101.588 351.322 97.9661 342.146 90.2292C336.32 85.3168 331.591 79.5033 328.287 72.6157C325.943 67.7274 324.555 62.5425 323.936 57.1462C323.031 49.2607 323.672 41.5255 326.233 34.003C328.436 27.5303 331.954 21.8317 336.63 16.8254C340.123 13.0854 343.982 9.80612 348.352 7.15366C353.953 3.75338 360.021 1.55519 366.522 0.7665C370.04 0.339711 373.607 0.175906 377.154 0.151134C384.994 0.0963733 392.835 0.106123 400.676 0.115872C403.724 0.119662 406.772 0.123452 409.82 0.123452L411.035 0.123453C411.327 6.21128 411.583 12.1506 407.449 17.1781C403.776 21.6445 399.243 24.3908 393.296 24.3838C388.14 24.3777 382.984 24.3737 377.828 24.3929C374.372 24.4057 370.915 24.4863 367.547 25.3714C363.616 26.4041 360.15 28.2984 357.068 30.9705C354.126 33.5201 351.741 36.4554 350.127 40.0028C348.821 42.8715 348.121 45.8856 347.985 49.0325C347.814 52.9978 348.204 56.8824 349.714 60.5932C351.231 64.3214 353.481 67.5221 356.448 70.2679C358.587 72.2461 360.897 73.9087 363.518 75.1658C366.242 76.4716 369.134 77.2979 372.111 77.4069C375.628 77.5356 384.103 77.4793 390.4 77.4374C392.862 77.421 394.992 77.4069 396.361 77.4069L413.24 99.3824C411.078 101.19 408.535 101.877 405.791 101.892C401.783 101.913 397.775 101.909 393.731 101.904C392.059 101.903 390.381 101.901 388.694 101.901C387.128 101.9 385.573 101.908 384.025 101.916Z" fill="white"/>
</svg>
